<svg xmlns="http://www.w3.org/2000/svg" style="display:none" aria-hidden="true">
  <symbol id="i-home" viewBox="0 0 24 24"><path fill="none" stroke="currentColor" stroke-width="2" stroke-linecap="round" stroke-linejoin="round" d="M3 12l9-9 9 9v9a2 2 0 0 1-2 2h-4v-7h-6v7H5a2 2 0 0 1-2-2z"/></symbol>
  <symbol id="i-envelope" viewBox="0 0 24 24"><path fill="none" stroke="currentColor" stroke-width="2" stroke-linecap="round" stroke-linejoin="round" d="M4 4h16c1.1 0 2 .9 2 2v12c0 1.1-.9 2-2 2H4c-1.1 0-2-.9-2-2V6c0-1.1.9-2 2-2z"/><polyline fill="none" stroke="currentColor" stroke-width="2" stroke-linecap="round" stroke-linejoin="round" points="22,6 12,13 2,6"/></symbol>
  <symbol id="i-star" viewBox="0 0 24 24"><path d="M12 2l3.09 6.26L22 9.27l-5 4.87 1.18 6.88L12 17.77l-6.18 3.25L7 14.14 2 9.27l6.91-1.01L12 2z"/></symbol>
  <symbol id="i-shield" viewBox="0 0 24 24"><path fill="none" stroke="currentColor" stroke-width="2" stroke-linecap="round" stroke-linejoin="round" d="M12 22s8-4 8-10V5l-8-3-8 3v7c0 6 8 10 8 10z"/></symbol>
  <symbol id="i-cart" viewBox="0 0 24 24"><circle fill="none" stroke="currentColor" stroke-width="2" cx="9" cy="21" r="1"/><circle fill="none" stroke="currentColor" stroke-width="2" cx="20" cy="21" r="1"/><polyline fill="none" stroke="currentColor" stroke-width="2" stroke-linecap="round" stroke-linejoin="round" points="1,1 5,1 7.68,14.39 a2,2 0 0 0 2,1.61 h9.72 a2,2 0 0 0 2,-1.61 L23,6 H6"/></symbol>
  <symbol id="i-play" viewBox="0 0 24 24"><polygon points="6,3 20,12 6,21"/></symbol>
  <symbol id="i-discord" viewBox="0 0 24 24"><path d="M20.317 4.3698a19.7913 19.7913 0 00-4.8851-1.5152.0741.0741 0 00-.0785.0371c-.211.3753-.4447.8648-.6083 1.2495-1.8447-.2762-3.68-.2762-5.4868 0-.1636-.3933-.4058-.8742-.6177-1.2495a.077.077 0 00-.0785-.037 19.7363 19.7363 0 00-4.8852 1.515.0699.0699 0 00-.0321.0277C.5334 9.0458-.319 13.5799.0992 18.0578a.0824.0824 0 00.0312.0561c2.0528 1.5076 4.0413 2.4228 5.9929 3.0294a.0777.0777 0 00.0842-.0276c.4616-.6304.8731-1.2952 1.226-1.9942a.076.076 0 00-.0416-.1057c-.6528-.2476-1.2743-.5495-1.8722-.8923a.077.077 0 01-.0076-.1277c.1258-.0943.2517-.1923.3718-.2914a.0743.0743 0 01.0776-.0105c3.9278 1.7933 8.18 1.7933 12.0614 0a.0739.0739 0 01.0785.0095c.1202.099.246.1981.3728.2924a.077.077 0 01-.0066.1276 12.2986 12.2986 0 01-1.873.8914.0766.0766 0 00-.0407.1067c.3604.698.7719 1.3628 1.225 1.9932a.076.076 0 00.0842.0286c1.961-.6067 3.9495-1.5219 6.0023-3.0294a.077.077 0 00.0313-.0552c.5004-5.177-.8382-9.6739-3.5485-13.6604a.061.061 0 00-.0312-.0286zM8.02 15.3312c-1.1825 0-2.1569-1.0857-2.1569-2.419 0-1.3332.9555-2.4189 2.157-2.4189 1.2108 0 2.1757 1.0952 2.1568 2.419 0 1.3332-.9555 2.4189-2.1569 2.4189zm7.9748 0c-1.1825 0-2.1569-1.0857-2.1569-2.419 0-1.3332.9554-2.4189 2.1569-2.4189 1.2108 0 2.1757 1.0952 2.1568 2.419 0 1.3332-.946 2.4189-2.1568 2.4189Z"/></symbol>
  <symbol id="i-youtube" viewBox="0 0 24 24"><path d="M23.498 6.186a3.016 3.016 0 0 0-2.122-2.136C19.505 3.545 12 3.545 12 3.545s-7.505 0-9.377.505A3.017 3.017 0 0 0 .502 6.186C0 8.07 0 12 0 12s0 3.93.502 5.814a3.016 3.016 0 0 0 2.122 2.136c1.871.505 9.376.505 9.376.505s7.505 0 9.377-.505a3.015 3.015 0 0 0 2.122-2.136C24 15.93 24 12 24 12s0-3.93-.502-5.814zM9.545 15.568V8.432L15.818 12l-6.273 3.568z"/></symbol>
  <symbol id="i-instagram" viewBox="0 0 24 24"><path d="M7.0301.084c-1.2768.0602-2.1487.264-2.911.5634-.7888.3075-1.4575.72-2.1228 1.3877-.6652.6677-1.075 1.3368-1.3802 2.127-.2954.7638-.4956 1.6365-.552 2.914-.0564 1.2775-.0689 1.6882-.0626 4.947.0062 3.2586.0206 3.6671.0825 4.9473.061 1.2765.264 2.1482.5635 2.9107.308.7889.72 1.4573 1.388 2.1228.6679.6655 1.3365 1.0743 2.1285 1.38.7632.295 1.6361.4961 2.9134.552 1.2773.056 1.6884.069 4.9462.0627 3.2578-.0062 3.668-.0207 4.9478-.0814 1.28-.0607 2.147-.2652 2.9098-.5633.7889-.3086 1.4578-.72 2.1228-1.3881.665-.6682 1.0745-1.3378 1.3795-2.1284.2957-.7632.4966-1.636.552-2.9124.056-1.2809.0692-1.6898.063-4.948-.0063-3.2583-.021-3.6668-.0817-4.9465-.0607-1.2797-.264-2.1487-.5633-2.9117-.3084-.7889-.72-1.4568-1.3876-2.1228C21.2982 1.33 20.628.9208 19.8378.6165 19.074.321 18.2017.1197 16.9244.0645 15.6471.0093 15.236-.005 11.977.0014 8.718.0076 8.31.0215 7.0301.0839m.1402 21.6932c-1.17-.0509-1.8053-.2453-2.2287-.408-.5606-.216-.96-.4771-1.3819-.895-.422-.4178-.6811-.8186-.9-1.378-.1644-.4234-.3624-1.058-.4171-2.228-.0595-1.2645-.072-1.6442-.079-4.848-.007-3.2037.0053-3.583.0607-4.848.05-1.169.2456-1.805.408-2.2282.216-.5613.4762-.96.895-1.3816.4188-.4217.8184-.6814 1.3783-.9003.423-.1651 1.0575-.3614 2.227-.4171 1.2655-.06 1.6447-.072 4.848-.079 3.2033-.007 3.5835.005 4.8495.0608 1.169.0508 1.8053.2445 2.228.408.5608.216.96.4754 1.3816.895.4217.4194.6816.8176.9005 1.3787.1653.4217.3617 1.056.4169 2.2263.0602 1.2655.0739 1.645.0796 4.848.0058 3.203-.0055 3.5834-.061 4.848-.051 1.17-.245 1.8055-.408 2.2294-.216.5604-.4763.96-.8954 1.3814-.419.4215-.8181.6811-1.3783.9-.4224.1649-1.0577.3617-2.2262.4174-1.2656.0595-1.6448.072-4.8493.079-3.2045.007-3.5825-.006-4.848-.0608M16.953 5.5864A1.44 1.44 0 1 0 18.39 4.144a1.44 1.44 0 0 0-1.437 1.4424M5.8385 12.012c.0067 3.4032 2.7706 6.1557 6.173 6.1493 3.4026-.0065 6.157-2.7701 6.1506-6.1733-.0065-3.4032-2.771-6.1565-6.174-6.1498-3.403.0067-6.156 2.771-6.1496 6.1738M8 12.0077a4 4 0 1 1 4.008 3.9921A3.9996 3.9996 0 0 1 8 12.0077"/></symbol>
  <symbol id="i-tiktok" viewBox="0 0 24 24"><path d="M12.525.02c1.31-.02 2.61-.01 3.91-.02.08 1.53.63 3.09 1.75 4.17 1.12 1.11 2.7 1.62 4.24 1.79v4.03c-1.44-.05-2.89-.35-4.2-.97-.57-.26-1.1-.59-1.62-.93-.01 2.92.01 5.84-.02 8.75-.08 1.4-.54 2.79-1.35 3.94-1.31 1.92-3.58 3.17-5.91 3.21-1.43.08-2.86-.31-4.08-1.03-2.02-1.19-3.44-3.37-3.65-5.71-.02-.5-.03-1-.01-1.49.18-1.9 1.12-3.72 2.58-4.96 1.66-1.44 3.98-2.13 6.15-1.72.02 1.48-.04 2.96-.04 4.44-.99-.32-2.15-.23-3.02.37-.63.41-1.11 1.04-1.36 1.75-.21.51-.15 1.07-.14 1.61.24 1.64 1.82 3.02 3.5 2.87 1.12-.01 2.19-.66 2.77-1.61.19-.33.4-.67.41-1.06.1-1.79.06-3.57.07-5.36.01-4.03-.01-8.05.02-12.07z"/></symbol>
  <symbol id="i-x" viewBox="0 0 24 24"><path d="M14.234 10.162 22.977 0h-2.072l-7.591 8.824L7.251 0H.258l9.168 13.343L.258 24H2.33l8.016-9.318L16.749 24h6.993zm-2.837 3.299-.929-1.329L3.076 1.56h3.182l5.965 8.532.929 1.329 7.754 11.09h-3.182z"/></symbol>
  <symbol id="i-snapchat" viewBox="0 0 24 24"><path d="M12.206.793c.99 0 4.347.276 5.93 3.821.529 1.193.403 3.219.299 4.847l-.003.06c-.012.18-.022.345-.03.51.075.045.203.09.401.09.3-.016.659-.12 1.033-.301.165-.088.344-.104.464-.104.182 0 .359.029.509.09.45.149.734.479.734.838.015.449-.39.839-1.213 1.168-.089.029-.209.075-.344.119-.45.135-1.139.36-1.333.81-.09.224-.061.524.12.868l.015.015c.06.136 1.526 3.475 4.791 4.014.255.044.435.27.42.509 0 .075-.015.149-.045.225-.24.569-1.273.988-3.146 1.271-.059.091-.12.375-.164.57-.029.179-.074.36-.134.553-.076.271-.27.405-.555.405h-.03c-.135 0-.313-.031-.538-.074-.36-.075-.765-.135-1.273-.135-.3 0-.599.015-.913.074-.6.104-1.123.464-1.723.884-.853.599-1.826 1.288-3.294 1.288-.06 0-.119-.015-.18-.015h-.149c-1.468 0-2.427-.675-3.279-1.288-.599-.42-1.107-.779-1.707-.884-.314-.045-.629-.074-.928-.074-.54 0-.958.089-1.272.149-.211.043-.391.074-.54.074-.374 0-.523-.224-.583-.42-.061-.192-.09-.389-.135-.567-.046-.181-.105-.494-.166-.57-1.918-.222-2.95-.642-3.189-1.226-.031-.063-.052-.15-.055-.225-.015-.243.165-.465.42-.509 3.264-.54 4.73-3.879 4.791-4.02l.016-.029c.18-.345.224-.645.119-.869-.195-.434-.884-.658-1.332-.809-.121-.029-.24-.074-.346-.119-1.107-.435-1.257-.93-1.197-1.273.09-.479.674-.793 1.168-.793.146 0 .27.029.383.074.42.194.789.3 1.104.3.234 0 .384-.06.465-.105l-.046-.569c-.098-1.626-.225-3.651.307-4.837C7.392 1.077 10.739.807 11.727.807l.419-.015h.06z"/></symbol>
  <symbol id="i-facebook" viewBox="0 0 24 24"><path d="M9.101 23.691v-7.98H6.627v-3.667h2.474v-1.58c0-4.085 1.848-5.978 5.858-5.978.401 0 .955.042 1.468.103a8.68 8.68 0 0 1 1.141.195v3.325a8.623 8.623 0 0 0-.653-.036 26.805 26.805 0 0 0-.733-.009c-.707 0-1.259.096-1.675.309a1.686 1.686 0 0 0-.679.622c-.258.42-.374.995-.374 1.752v1.297h3.919l-.386 2.103-.287 1.564h-3.246v8.245C19.396 23.238 24 18.179 24 12.044c0-6.627-5.373-12-12-12s-12 5.373-12 12c0 5.628 3.874 10.35 9.101 11.647Z"/></symbol>
  <symbol id="i-rumble" viewBox="0 0 24 24"><path d="M14.4528 13.5458c.8064-.6542.9297-1.8381.2756-2.6445a1.8802 1.8802 0 0 0-.2756-.2756 21.2127 21.2127 0 0 0-4.3121-2.776c-1.066-.51-2.256.2-2.4261 1.414a23.5226 23.5226 0 0 0-.14 5.5021c.116 1.23 1.292 1.964 2.372 1.492a19.6285 19.6285 0 0 0 4.5062-2.704v-.008zm6.9322-5.4002c2.0335 2.228 2.0396 5.637.014 7.8723A26.1487 26.1487 0 0 1 8.2946 23.846c-2.6848.6713-5.4168-.914-6.1662-3.5781-1.524-5.2002-1.3-11.0803.17-16.3045.772-2.744 3.3521-4.4661 6.0102-3.832 4.9242 1.174 9.5443 4.196 13.0764 8.0121v.002z"/></symbol>
  <symbol id="i-twitch" viewBox="0 0 24 24"><path d="M11.571 4.714h1.715v5.143H11.57zm4.715 0H18v5.143h-1.714zM6 0L1.714 4.286v15.428h5.143V24l4.286-4.286h3.428L22.286 12V0zm14.571 11.143l-3.428 3.428h-3.429l-3 3v-3H6.857V1.714h13.714Z"/></symbol>
  <symbol id="i-kick" viewBox="0 0 24 24"><path d="M1.333 0h8v5.333H12V2.667h2.667V0h8v8H20v2.667h-2.667v2.666H20V16h2.667v8h-8v-2.667H12v-2.666H9.333V24h-8Z"/></symbol>
  <symbol id="i-patreon" viewBox="0 0 24 24"><path d="M22.957 7.21c-.004-3.064-2.391-5.576-5.191-6.482-3.478-1.125-8.064-.962-11.384.604C2.357 3.231 1.093 7.391 1.046 11.54c-.039 3.411.302 12.396 5.369 12.46 3.765.047 4.326-4.804 6.068-7.141 1.24-1.662 2.836-2.132 4.801-2.618 3.376-.836 5.678-3.501 5.673-7.031Z"/></symbol>
  <symbol id="i-bitcoin" viewBox="0 0 24 24"><path d="M23.638 14.904c-1.602 6.43-8.113 10.34-14.542 8.736C2.67 22.05-1.244 15.525.362 9.105 1.962 2.67 8.475-1.243 14.9.358c6.43 1.605 10.342 8.115 8.738 14.548v-.002zm-6.35-4.613c.24-1.59-.974-2.45-2.64-3.03l.54-2.153-1.315-.33-.525 2.107c-.345-.087-.705-.167-1.064-.25l.526-2.127-1.32-.33-.54 2.165c-.285-.067-.565-.132-.84-.2l-1.815-.45-.35 1.407s.975.225.955.236c.535.136.63.486.615.766l-1.477 5.92c-.075.166-.24.406-.614.314.015.02-.96-.24-.96-.24l-.66 1.51 1.71.426.93.242-.54 2.19 1.32.327.54-2.17c.36.1.705.19 1.05.273l-.51 2.154 1.32.33.545-2.19c2.24.427 3.93.257 4.64-1.774.57-1.637-.03-2.58-1.217-3.196.854-.193 1.5-.76 1.68-1.93h.01zm-3.01 4.22c-.404 1.64-3.157.75-4.05.53l.72-2.9c.896.23 3.757.67 3.33 2.37zm.41-4.24c-.37 1.49-2.662.735-3.405.55l.654-2.64c.744.18 3.137.524 2.75 2.084v.006z"/></symbol>
  <symbol id="i-monero" viewBox="0 0 24 24"><path d="M12 0C5.365 0 0 5.373 0 12.015c0 1.335.228 2.607.618 3.81h3.577V5.729L12 13.545l7.805-7.815v10.095h3.577c.389-1.203.618-2.475.618-3.81C24 5.375 18.635 0 12 0zm-1.788 15.307l-3.417-3.421v6.351H1.758C3.87 21.689 7.678 24 12 24s8.162-2.311 10.245-5.764h-5.04v-6.351l-3.386 3.421-1.788 1.79-1.814-1.79h-.005z"/></symbol>
  <symbol id="i-dogecoin" viewBox="0 0 24 24"><path d="M12.288 7.908h-1.715v3.38h2.697v1.415h-2.697v3.38h1.799c.462 0 3.794.052 3.789-3.933-.005-3.984-3.232-4.242-3.873-4.242zM12 0C5.373 0 0 5.373 0 12s5.373 12 12 12 12-5.373 12-12S18.627 0 12 0zm.472 18.481H8.126v-5.778H6.594v-1.415h1.532V5.511h3.73c.882 0 6.727-.183 6.727 6.594-.001 6.888-6.111 6.376-6.111 6.376z"/></symbol>
</svg>
